<svg xmlns="http://www.w3.org/2000/svg" xmlns:xlink="http://www.w3.org/1999/xlink" width="500" zoomAndPan="magnify" viewBox="0 0 375 374.999991" height="500" preserveAspectRatio="xMidYMid meet" version="1.0"><defs><clipPath id="8c9a3718a3"><path d="M 3 22.265625 L 373 22.265625 L 373 351 L 3 351 Z M 3 22.265625 " clip-rule="nonzero"/></clipPath></defs><rect x="-37.5" width="450" fill="#ffffff" y="-37.499999" height="449.999989" fill-opacity="1"/><rect x="-37.5" width="450" fill="#ffffff" y="-37.499999" height="449.999989" fill-opacity="1"/><g clip-path="url(#8c9a3718a3)"><path fill="#ffffff" d="M 371.949219 35.257812 L 205.390625 345.988281 C 201.644531 352.976562 191.335938 351.726562 189.210938 344.230469 L 138.128906 166.613281 L 5.871094 39.46875 C 0 33.824219 4.34375 23.96875 12.34375 24.386719 L 364.183594 22.351562 C 370.886719 22.304688 375 29.476562 371.949219 35.257812 Z M 341.347656 55.199219 L 156.433594 166.613281 L 200.121094 318.601562 Z M 147.605469 151.390625 L 332.285156 40.070312 L 33.609375 41.785156 Z M 147.605469 151.390625 " fill-opacity="1" fill-rule="nonzero"/></g></svg>